<?xml version="1.0" encoding="UTF-8"?>
<!DOCTYPE svg PUBLIC "-//W3C//DTD SVG 1.1//EN" "http://www.w3.org/Graphics/SVG/1.1/DTD/svg11.dtd">
<!-- Creator: Corel DESIGNER X5 -->
<svg xmlns="http://www.w3.org/2000/svg" xml:space="preserve" width="31.3657mm" height="38.5384mm" style="shape-rendering:geometricPrecision; text-rendering:geometricPrecision; image-rendering:optimizeQuality; fill-rule:evenodd; clip-rule:evenodd"
viewBox="0 0 678 834"
 xmlns:xlink="http://www.w3.org/1999/xlink">
 <defs>
  <style type="text/css">
   <![CDATA[
    .str0 {stroke:#2B2A29;stroke-width:4.32579;stroke-linecap:round;stroke-linejoin:round}
    .fil0 {fill:#348CFD}
   ]]>
  </style>
 </defs>
 <g id="Layer_x0020_1">
  <metadata id="CorelCorpID_0Corel-Layer"/>
  <path class="fil0 str0" d="M520 633c32,-74 120,-120 139,-198 47,-196 9,-428 -249,-433 -84,-2 -271,65 -279,224 -8,155 -154,143 -125,189 10,16 63,-8 91,48 32,61 -8,103 46,154 27,25 49,26 75,52 33,33 -25,128 14,153 99,4 150,9 258,10 54,-39 4,-137 30,-198z"/>
 </g>
</svg>
