<?xml version="1.0" encoding="UTF-8"?>
<!DOCTYPE svg PUBLIC "-//W3C//DTD SVG 1.1//EN" "http://www.w3.org/Graphics/SVG/1.1/DTD/svg11.dtd">
<!-- Creator: Corel DESIGNER X5 -->
<svg xmlns="http://www.w3.org/2000/svg" xml:space="preserve" width="28.775mm" height="36.395mm" style="shape-rendering:geometricPrecision; text-rendering:geometricPrecision; image-rendering:optimizeQuality; fill-rule:evenodd; clip-rule:evenodd"
viewBox="0 0 1370 1732"
 xmlns:xlink="http://www.w3.org/1999/xlink">
 <defs>
  <style type="text/css">
   <![CDATA[
    .str0 {stroke:#2B2A29;stroke-width:9.51923;stroke-linecap:round;stroke-linejoin:round}
    .fil0 {fill:#348CFD}
   ]]>
  </style>
 </defs>
 <g id="Layer_x0020_1">
  <metadata id="CorelCorpID_0Corel-Layer"/>
  <path class="fil0 str0" d="M5 866c0,476 304,861 680,861 376,0 680,-386 680,-861 0,-476 -304,-861 -680,-861 -376,0 -680,386 -680,861zm501 -71c0,39 -48,71 -108,71 -60,0 -108,-32 -108,-71 0,-39 48,-71 108,-71 60,0 108,32 108,71zm574 0c0,39 -48,71 -108,71 -60,0 -108,-32 -108,-71 0,-39 48,-71 108,-71 60,0 108,32 108,71z"/>
 </g>
</svg>
